<?xml version="1.0" encoding="UTF-8" standalone="no"?>
<svg
   xmlns:dc="http://purl.org/dc/elements/1.1/"
   xmlns:cc="http://creativecommons.org/ns#"
   xmlns:rdf="http://www.w3.org/1999/02/22-rdf-syntax-ns#"
   xmlns:svg="http://www.w3.org/2000/svg"
   xmlns="http://www.w3.org/2000/svg"
   xmlns:xlink="http://www.w3.org/1999/xlink"
   xmlns:sodipodi="http://sodipodi.sourceforge.net/DTD/sodipodi-0.dtd"
   xmlns:inkscape="http://www.inkscape.org/namespaces/inkscape"
   width="512"
   height="512"
   viewBox="0 0 135.46666 135.46667"
   version="1.1"
   id="svg8"
   inkscape:version="1.0.1 (3bc2e813f5, 2020-09-07)"
   sodipodi:docname="favicon-src.svg">
  <defs
     id="defs2">
    <clipPath
       clipPathUnits="userSpaceOnUse"
       id="clipPath909">
      <use
         x="0"
         y="0"
         xlink:href="#g905"
         id="use911"
         width="100%"
         height="100%" />
    </clipPath>
  </defs>
  <sodipodi:namedview
     id="base"
     pagecolor="#ffffff"
     bordercolor="#666666"
     borderopacity="1.0"
     inkscape:pageopacity="0.0"
     inkscape:pageshadow="2"
     inkscape:zoom="1"
     inkscape:cx="522.44409"
     inkscape:cy="172.61327"
     inkscape:document-units="px"
     inkscape:current-layer="g905"
     inkscape:document-rotation="0"
     showgrid="false"
     units="px"
     showborder="false"
     showguides="true"
     inkscape:guide-bbox="true"
     inkscape:window-width="2001"
     inkscape:window-height="1610"
     inkscape:window-x="3912"
     inkscape:window-y="307"
     inkscape:window-maximized="0"
     fit-margin-top="0"
     fit-margin-left="0"
     fit-margin-right="0"
     fit-margin-bottom="0" />
  <metadata
     id="metadata5">
    <rdf:RDF>
      <cc:Work
         rdf:about="">
        <dc:format>image/svg+xml</dc:format>
        <dc:type
           rdf:resource="http://purl.org/dc/dcmitype/StillImage" />
        <dc:title></dc:title>
      </cc:Work>
    </rdf:RDF>
  </metadata>
  <g
     inkscape:label="Layer 1"
     inkscape:groupmode="layer"
     id="layer1"
     transform="translate(58.643794,-17.632368)">
    <g
       id="g907"
       clip-path="url(#clipPath909)"
       transform="translate(-1.7008928,-11.150298)">
      <g
         inkscape:label="Clip"
         id="g905">
        <g
           id="g844">
          <circle
             style="font-variation-settings:'wght' 700;fill:#3178cd;fill-opacity:1;stroke:#000000;stroke-width:0.238212;stroke-opacity:0"
             id="path833"
             cx="10.790432"
             cy="96.515999"
             r="67.614227"
             inkscape:export-xdpi="96"
             inkscape:export-ydpi="96" />
          <g
             id="g970"
             transform="translate(-3.5700935,-4.6247157)"
             inkscape:export-xdpi="96"
             inkscape:export-ydpi="96">
            <path
               d="m -11.589814,137.55585 q -8.022766,0 -11.976013,-3.87573 -3.953248,-3.83697 -3.953248,-12.20856 v -9.84436 q 0,-3.992 -1.782836,-6.00738 -1.782837,-2.01538 -5.929871,-2.01538 h -2.441711 v -7.325129 h 2.441711 q 2.092895,0 3.565674,-0.426331 1.472778,-0.465087 2.402954,-1.395263 0.930176,-0.930176 1.317749,-2.364197 0.42633,-1.472778 0.42633,-3.488159 v -6.821289 q 0,-3.992005 0.891419,-7.015076 0.930176,-3.023071 2.868042,-5.038452 1.937866,-2.015381 4.92218,-3.023071 3.023071,-1.046448 7.24762,-1.046448 h 3.2556185 v 7.286377 H -10.77591 q -1.860352,0 -3.371888,0.465088 -1.472778,0.42633 -2.557983,1.434021 -1.085205,1.00769 -1.666565,2.674255 -0.58136,1.627808 -0.58136,4.069519 v 6.782532 q 0,2.906799 -0.503845,4.960937 -0.465088,2.054139 -1.472778,3.449402 -1.007691,1.356507 -2.557984,2.131653 -1.550293,0.736389 -3.643188,1.046448 4.147033,0.465093 6.162414,3.255613 2.015381,2.75177 2.015381,8.48785 v 9.84436 q 0,2.51923 0.58136,4.18579 0.58136,1.66657 1.666565,2.67426 1.085205,1.00769 2.557983,1.43402 1.511536,0.42633 3.371888,0.42633 h 2.4417145 v 7.28637 z"
               style="font-style:normal;font-variant:normal;font-weight:bold;font-stretch:normal;font-size:79.375px;line-height:1.25;font-family:Consolas;-inkscape-font-specification:'Consolas, Bold';font-variant-ligatures:normal;font-variant-caps:normal;font-variant-numeric:normal;font-variant-east-asian:normal;fill:#ffffff;fill-opacity:1;stroke-width:0.264583"
               id="path957" />
            <path
               d="M 21.046168,126.93635 7.4811026,96.705638 4.6905746,90.194408 v 21.006462 15.73548 h -8.681641 V 76.280527 h 11.704713 l 13.8363654,30.424493 2.441711,5.92987 V 90.271918 76.280527 h 8.68164 v 50.655823 z"
               style="font-style:normal;font-variant:normal;font-weight:bold;font-stretch:normal;font-size:79.375px;line-height:1.25;font-family:Consolas;-inkscape-font-specification:'Consolas, Bold';font-variant-ligatures:normal;font-variant-caps:normal;font-variant-numeric:normal;font-variant-east-asian:normal;fill:#ffffff;fill-opacity:1;stroke-width:0.264583"
               id="path959" />
            <path
               d="m 40.272109,64.725579 q 8.061522,0 12.014769,3.875732 3.953248,3.836975 3.953248,12.247315 v 6.51123 q 0,3.992005 1.744079,6.007386 1.782837,1.976623 5.929871,1.976623 h 2.480468 V 102.669 h -2.480468 q -2.092896,0 -3.565674,0.46509 -1.472778,0.42633 -2.402954,1.3565 -0.891419,0.93018 -1.317749,2.40296 -0.387573,1.43402 -0.387573,3.4494 v 10.19317 q 0,3.99201 -0.930176,6.97632 -0.891419,3.02307 -2.829285,5.03846 -1.937866,2.01538 -4.960938,3.02307 -3.023071,1.04644 -7.247618,1.04644 h -3.255615 v -7.28637 h 2.480468 q 1.860351,0 3.333129,-0.42633 1.511536,-0.42633 2.596741,-1.47278 1.085204,-1.00769 1.666564,-2.67426 0.58136,-1.6278 0.58136,-4.06952 v -10.0769 q 0,-2.9068 0.465089,-4.96094 0.503845,-2.09289 1.472778,-3.4494 1.007691,-1.39526 2.557984,-2.13165 1.550292,-0.736393 3.643188,-1.046449 -4.147034,-0.503844 -6.162415,-3.255615 -1.976624,-2.790528 -1.976624,-8.526612 v -6.472473 q 0,-2.519226 -0.58136,-4.18579 -0.58136,-1.705322 -1.666564,-2.713013 -1.085205,-1.00769 -2.596741,-1.434022 -1.472778,-0.426329 -3.333129,-0.426329 H 37.016494 V 64.72558 Z"
               style="font-style:normal;font-variant:normal;font-weight:bold;font-stretch:normal;font-size:79.375px;line-height:1.25;font-family:Consolas;-inkscape-font-specification:'Consolas, Bold';font-variant-ligatures:normal;font-variant-caps:normal;font-variant-numeric:normal;font-variant-east-asian:normal;fill:#ffffff;fill-opacity:1;stroke-width:0.264583"
               id="path961" />
          </g>
        </g>
      </g>
    </g>
  </g>
</svg>
