<?xml version="1.0" encoding="UTF-8" standalone="no"?>
<svg
   xmlns:dc="http://purl.org/dc/elements/1.1/"
   xmlns:cc="http://creativecommons.org/ns#"
   xmlns:rdf="http://www.w3.org/1999/02/22-rdf-syntax-ns#"
   xmlns:svg="http://www.w3.org/2000/svg"
   xmlns="http://www.w3.org/2000/svg"
   xmlns:sodipodi="http://sodipodi.sourceforge.net/DTD/sodipodi-0.dtd"
   xmlns:inkscape="http://www.inkscape.org/namespaces/inkscape"
   width="512mm"
   height="512mm"
   viewBox="0 0 512 512.00001"
   version="1.1"
   id="svg8"
   inkscape:version="1.0.1 (3bc2e813f5, 2020-09-07)"
   sodipodi:docname="favicon-inkscape.svg">
  <defs
     id="defs2" />
  <sodipodi:namedview
     id="base"
     pagecolor="#ffffff"
     bordercolor="#666666"
     borderopacity="1.0"
     inkscape:pageopacity="0.0"
     inkscape:pageshadow="2"
     inkscape:zoom="0.7"
     inkscape:cx="850.07752"
     inkscape:cy="1095.3591"
     inkscape:document-units="mm"
     inkscape:current-layer="layer1"
     inkscape:document-rotation="0"
     showgrid="false"
     inkscape:window-width="2655"
     inkscape:window-height="1895"
     inkscape:window-x="3878"
     inkscape:window-y="38"
     inkscape:window-maximized="0"
     inkscape:snap-bbox="true"
     inkscape:snap-grids="true"
     inkscape:snap-page="true" />
  <metadata
     id="metadata5">
    <rdf:RDF>
      <cc:Work
         rdf:about="">
        <dc:format>image/svg+xml</dc:format>
        <dc:type
           rdf:resource="http://purl.org/dc/dcmitype/StillImage" />
        <dc:title></dc:title>
      </cc:Work>
    </rdf:RDF>
  </metadata>
  <g
     inkscape:label="Layer 1"
     inkscape:groupmode="layer"
     id="layer1"
     transform="translate(-0.0157976,-0.00507288)">
    <path
       id="path838"
       style="font-variation-settings:'wght' 700;fill:#a0cae1;stroke-width:0.907884;fill-opacity:1"
       inkscape:transform-center-x="-1.5234357e-06"
       inkscape:transform-center-y="-6.2608317e-06"
       d="M 1805.4902 483.7793 L 967.55859 1935.1172 L 1805.4902 1451.3379 L 1805.4902 483.7793 z "
       transform="matrix(0.26458333,0,0,0.26458333,0.0157976,0.00507288)" />
    <path
       id="path851"
       style="font-variation-settings:'wght' 700;fill:#26495c;stroke-width:0.907884;fill-opacity:1"
       inkscape:transform-center-x="-1.5234357e-06"
       inkscape:transform-center-y="-6.2608317e-06"
       d="M 967.55859 1935.1172 L 129.62891 483.7793 L 129.62891 1451.3379 L 967.55859 1935.1172 z "
       transform="matrix(0.26458333,0,0,0.26458333,0.0157976,0.00507288)" />
    <path
       id="path857"
       style="font-variation-settings:'wght' 700;fill:#4586a8;stroke-width:0.907884"
       inkscape:transform-center-x="-1.5234357e-06"
       inkscape:transform-center-y="-6.2608317e-06"
       d="M 967.55859 0 L 129.62891 483.7793 L 967.55859 1935.1172 L 967.55859 0 z "
       transform="matrix(0.26458333,0,0,0.26458333,0.0157976,0.00507288)" />
    <path
       id="path854"
       style="font-variation-settings:'wght' 700;fill:#5aaedb;stroke-width:0.907884;fill-opacity:1"
       inkscape:transform-center-x="-1.5234357e-06"
       inkscape:transform-center-y="-6.2608317e-06"
       d="M 967.55859 0 L 967.55859 1935.1172 L 1805.4902 483.7793 L 967.55859 0 z "
       transform="matrix(0.26458333,0,0,0.26458333,0.0157976,0.00507288)" />
    <g
       aria-label="JS"
       id="text862"
       style="font-style:normal;font-variant:normal;font-weight:normal;font-stretch:normal;font-size:282.222px;line-height:1.25;font-family:'Cascadia Mono';-inkscape-font-specification:'Cascadia Mono, @wght=700';font-variant-ligatures:normal;font-variant-caps:normal;font-variant-numeric:normal;font-variant-east-asian:normal;font-variation-settings:'wght' 700;fill:#ffffff;fill-opacity:1;stroke-width:0.264583">
      <path
         d="m 174.0915,356.60178 q -33.3485,0 -51.53859,-18.19009 -18.05228,-18.32789 -18.05228,-51.26298 h 37.89602 q 0,16.53645 8.40602,25.76929 8.54383,9.09505 23.97785,9.09505 15.57182,0 23.97784,-9.09505 8.54383,-9.09504 8.54383,-25.76929 V 158.16444 h 36.38018 v 128.98427 q 0,33.07289 -18.4657,51.26298 -18.32789,18.19009 -51.12517,18.19009 z M 162.51599,191.65074 v -33.4863 h 64.21652 v 33.4863 z"
         style="font-style:normal;font-variant:normal;font-weight:normal;font-stretch:normal;font-size:282.222px;font-family:'Cascadia Mono';-inkscape-font-specification:'Cascadia Mono, @wght=700';font-variant-ligatures:normal;font-variant-caps:normal;font-variant-numeric:normal;font-variant-east-asian:normal;font-variation-settings:'wght' 700;fill:#ffffff;fill-opacity:1;stroke-width:0.264583"
         id="path864" />
      <path
         d="m 334.90842,356.60178 q -16.67425,0 -32.38387,-2.75608 -15.70963,-2.89387 -28.11196,-7.99261 l 4.96093,-37.207 q 15.15841,6.33897 30.04121,9.78406 15.02061,3.44509 27.69855,3.44509 14.74499,0 22.5998,-5.23654 7.85482,-5.23654 7.85482,-15.0206 0,-6.06336 -4.27192,-11.43771 -4.13411,-5.37434 -11.85112,-8.95724 l -28.11195,-13.64257 q -20.80836,-10.19747 -32.24607,-25.21807 -11.43771,-15.02061 -11.43771,-33.2107 0,-25.63148 16.94986,-39.68746 16.94985,-14.05598 47.95569,-14.05598 18.05228,0 34.17532,6.33897 16.26083,6.33897 28.80097,18.32789 l -25.08027,28.80098 q -9.50846,-9.09505 -19.15472,-13.91818 -9.64626,-4.96093 -18.6035,-4.96093 -12.12673,0 -18.87911,5.23654 -6.75238,5.09874 -6.75238,14.8828 0,6.47677 4.68533,12.26453 4.82313,5.78776 13.64256,10.47308 l 26.45832,13.64257 q 20.67055,10.74869 31.83265,25.08027 11.2999,14.33159 11.2999,30.73023 0,26.0449 -18.7413,40.23868 -18.7413,14.05598 -53.33003,14.05598 z"
         style="font-style:normal;font-variant:normal;font-weight:normal;font-stretch:normal;font-size:282.222px;font-family:'Cascadia Mono';-inkscape-font-specification:'Cascadia Mono, @wght=700';font-variant-ligatures:normal;font-variant-caps:normal;font-variant-numeric:normal;font-variant-east-asian:normal;font-variation-settings:'wght' 700;fill:#ffffff;fill-opacity:1;stroke-width:0.264583"
         id="path866" />
    </g>
  </g>
</svg>
