<?xml version="1.0" standalone="no"?>
<!DOCTYPE svg PUBLIC "-//W3C//DTD SVG 20010904//EN"
 "http://www.w3.org/TR/2001/REC-SVG-20010904/DTD/svg10.dtd">
<svg version="1.0" xmlns="http://www.w3.org/2000/svg"
 width="700.000000pt" height="700.000000pt" viewBox="0 0 700.000000 700.000000"
 preserveAspectRatio="xMidYMid meet">
<metadata>
Created by potrace 1.11, written by Peter Selinger 2001-2013
</metadata>
<g transform="translate(0.000000,700.000000) scale(0.100000,-0.100000)"
fill="#000000" stroke="none">
<path d="M3435 6963 c-33 -20 -80 -47 -105 -61 -25 -14 -58 -33 -75 -43 -16
-9 -124 -71 -240 -138 -115 -66 -217 -125 -225 -130 -8 -5 -100 -59 -205 -119
-104 -60 -289 -167 -410 -237 -121 -70 -308 -178 -415 -240 -107 -61 -240
-138 -295 -170 -55 -32 -158 -92 -230 -133 -71 -41 -188 -109 -260 -150 -71
-41 -148 -85 -170 -98 -22 -12 -105 -60 -185 -106 l-145 -84 0 -1753 0 -1753
120 -70 c66 -39 224 -130 350 -203 204 -117 463 -267 625 -360 30 -18 98 -57
150 -87 124 -72 741 -428 850 -491 47 -26 99 -56 115 -66 17 -10 48 -28 70
-41 22 -12 69 -39 105 -60 36 -21 81 -47 100 -58 19 -10 123 -70 230 -132 257
-149 261 -151 289 -166 22 -11 29 -11 55 6 40 24 198 115 256 148 25 13 50 28
55 32 6 4 30 19 55 32 38 22 143 82 277 159 17 10 50 29 72 43 22 15 42 26 45
26 2 0 77 43 166 95 89 52 164 95 166 95 2 0 32 17 66 38 35 21 88 52 118 69
30 17 93 53 140 80 47 27 105 61 130 75 96 54 366 211 390 226 14 9 27 17 30
17 3 0 16 8 30 17 14 8 131 76 260 151 129 74 251 144 270 155 55 33 182 106
212 122 15 8 53 31 85 50 32 19 69 40 83 48 13 7 39 22 57 33 l33 21 0 1754
c0 974 -4 1754 -9 1754 -4 0 -129 70 -276 155 -147 85 -271 155 -276 155 -5 0
-9 5 -9 10 0 6 -4 10 -10 10 -5 0 -55 27 -111 60 -55 33 -102 60 -104 60 -2 0
-36 19 -77 43 -40 24 -93 55 -118 69 -25 14 -85 49 -135 78 -49 29 -106 62
-125 72 -35 21 -194 112 -710 411 -157 90 -301 174 -320 184 -19 11 -181 105
-360 208 -379 219 -390 225 -393 225 -1 -1 -29 -17 -62 -37z"/>
</g>
</svg>
